<mxfile host="app.diagrams.net" modified="2023-10-08T16:41:44.942Z" agent="Mozilla/5.0 (Windows NT 10.0; Win64; x64) AppleWebKit/537.36 (KHTML, like Gecko) Chrome/117.0.0.0 Safari/537.36" version="22.0.4" etag="d5l7DVPGHO5i9yDFi6Su" type="github">
  <diagram name="PÃ¡gina-1" id="gjJieHwlCjB3vCOI6Wgt">
    <mxGraphModel>
      <root>
        <mxCell id="0" />
        <mxCell id="1" parent="0" />
      </root>
    </mxGraphModel>
  </diagram>
</mxfile>
